<?xml version="1.0" encoding="utf-8"?>
<!-- Generator: Adobe Illustrator 22.0.1, SVG Export Plug-In . SVG Version: 6.00 Build 0)  -->
<svg version="1.1" id="Layer_1" xmlns="http://www.w3.org/2000/svg" xmlns:xlink="http://www.w3.org/1999/xlink" x="0px" y="0px"
	 viewBox="0 0 62 62" style="enable-background:new 0 0 62 62;" xml:space="preserve">
<style type="text/css">
	.st0{fill:#DE1119;}
	.st1{fill:#BF0D1B;}
	.st2{fill:#F4F6F9;}
</style>
<path class="st0" d="M61,31c0,16.6-13.4,30-30,30C14.4,61,1,47.6,1,31C1,14.4,14.4,1,31,1C47.6,1,61,14.4,61,31z"/>
<path class="st1" d="M61,31.3C61,31.3,61,31.3,61,31.3c-0.1-0.1-15.1-15.1-15.1-15.1C42.1,12.4,36.8,10,31,10c-11.6,0-21,9.4-21,21
	c0,5.8,2.4,11.1,6.2,14.9c0,0,0.1,0.1,0.1,0.1c0,0,14.9,14.9,14.9,14.9c0,0,0,0,0,0C47.6,60.8,60.8,47.6,61,31.3z"/>
<g>
	<path class="st2" d="M31,10c-11.6,0-21,9.4-21,21s9.4,21,21,21s21-9.4,21-21S42.6,10,31,10z M31,50.3c-10.6,0-19.3-8.6-19.3-19.3
		S20.4,11.7,31,11.7S50.3,20.4,50.3,31S41.6,50.3,31,50.3z"/>
	<path class="st2" d="M41.5,30.1h-9.6v-9.6c0-0.5-0.4-0.9-0.9-0.9s-0.9,0.4-0.9,0.9v9.6h-9.6c-0.5,0-0.9,0.4-0.9,0.9
		c0,0.5,0.4,0.9,0.9,0.9h9.6v9.6c0,0.5,0.4,0.9,0.9,0.9s0.9-0.4,0.9-0.9v-9.6h9.6c0.5,0,0.9-0.4,0.9-0.9
		C42.4,30.5,42,30.1,41.5,30.1z"/>
</g>
</svg>
