<?xml version="1.0" encoding="utf-8"?>
<!-- Generator: Adobe Illustrator 22.0.1, SVG Export Plug-In . SVG Version: 6.00 Build 0)  -->
<svg version="1.1" id="Layer_1" xmlns="http://www.w3.org/2000/svg" xmlns:xlink="http://www.w3.org/1999/xlink" x="0px" y="0px"
	 viewBox="0 0 32 41" style="enable-background:new 0 0 32 41;" xml:space="preserve">
<style type="text/css">
	.st0{fill:#CCD0D2;}
</style>
<g>
	<path class="st0" d="M21.6,6.8c1.5-1.6,2.5-3.8,2.2-6.1c-2.2,0.1-4.8,1.3-6.4,2.9c-1.4,1.4-2.6,3.7-2.3,5.9
		C17.6,9.7,20.1,8.5,21.6,6.8z M26.2,22.3c0-5,4-7.4,4.1-7.5c-2.3-3.4-5.8-3.9-7-3.9c-3-0.3-5.8,1.8-7.3,1.8c-1.5,0-3.8-1.8-6.3-1.7
		c-3.3,0.1-6.3,1.9-7.9,5c-3.4,6-0.9,15,2.4,19.9c1.6,2.4,3.5,5.1,6,5c2.4-0.1,3.3-1.6,6.3-1.6c2.9,0,3.8,1.6,6.3,1.6
		c2.6,0,4.3-2.4,5.9-4.9c1.8-2.8,2.6-5.5,2.7-5.6C31.3,30.2,26.3,28.2,26.2,22.3z"/>
</g>
</svg>
