<?xml version="1.0" encoding="utf-8"?>
<!-- Generator: Adobe Illustrator 22.0.1, SVG Export Plug-In . SVG Version: 6.00 Build 0)  -->
<svg version="1.1" id="Layer_1" xmlns="http://www.w3.org/2000/svg" xmlns:xlink="http://www.w3.org/1999/xlink" x="0px" y="0px"
	 viewBox="0 0 90 116" style="enable-background:new 0 0 90 116;" xml:space="preserve">
<style type="text/css">
	.st0{fill:#FFFFFF;}
</style>
<path class="st0" d="M64.5,15.7l-6.8,3.4c-0.6,0.3-0.8,1-0.6,1.6l1.5,3.5c-0.9,0.4-1.4,1.3-1.4,2.3c0.1,1.2,0.8,2.1,2,2.3
	c0.7,0.1,1.5,0.2,2.2,0.3c1.4,0.2,3,0.4,3.8,0.8c0.9,0.6,1.9,0.8,3,0.8c2.1,2,2.8,5.5,2.5,7.3c-0.1,0.8-0.4,2-0.6,3.2
	c-0.2,0.9-0.4,1.9-0.6,2.9c-4.1-2.4-9.2-2.3-13.3,0.2l-1.3,0.8c-0.1-0.1-0.2-0.1-0.4-0.2c-3.7-2.3-7-3.6-11.3-2.9
	c-0.2,0,0,0-1.9,0.6c-4.4,1.4,1.8,1,1.6,5.6l-0.6,8c0.9,4.6-2.6,7.2,0.8,9.4c4.4,1.9,6.5,1.6,10.7-0.8c1.9,1.1,5,2.2,9.7,2.5
	c6.4,0.3,14-1.1,22.7-4.3c0,0,0.1,0,0.1,0c1.3-0.6,2.2-1.7,2.7-3.3c0.3-1,0.4-2,0.4-3.2c0-2.5-0.6-5.1-1.2-7.1
	c-1.1-3.7-2.7-7.6-4.6-10.7C79.3,31.6,74,22,74,21.9c-0.1-0.2-0.2-0.3-0.4-0.4l-7.8-5.7C65.4,15.5,64.9,15.5,64.5,15.7z M42,45.2
	c0.2-0.1,0.3-0.1,0.4-0.1c3.7-0.7,7.6,0,10.8,2c1.3,0.8,2.6,1.6,3.7,2.2c0.6,0.4,1.3,0.1,1.7-0.5c0.1-0.2,0.2-0.4,0.2-0.6
	c0-0.4-0.2-0.8-0.6-1.1c-0.3-0.2-0.6-0.4-0.9-0.5l0.2-0.1c3.6-2.2,8.1-2,11.5,0.4c-0.2,1.4-0.3,2.8-0.3,4c0,0.7,0.6,1.2,1.3,1.2
	s1.2-0.6,1.2-1.3c-0.1-2.6,0.7-6.1,1.3-9c0.3-1.3,0.5-2.4,0.6-3.4c0.1-0.4,0.1-0.8,0.1-1.2c0-2-0.6-4.6-2-6.8
	c0.9-0.2,1.6-0.4,1.8-0.5c0.5-0.2,0.8-0.7,0.8-1.2c0-0.1,0-0.3-0.1-0.4c-0.2-0.6-0.9-1-1.6-0.8c0,0-1,0.4-2.3,0.5
	c-1.5,0.2-2.7,0.1-3.4-0.4c-1.3-0.8-3.1-1-4.8-1.2c-0.7-0.1-1.3-0.1-1.9-0.3c3.4-1,7.5-0.1,7.6-0.1c0.7,0.1,1.3-0.3,1.5-1
	s-0.3-1.3-1-1.5c-0.1,0-0.6-0.1-1.3-0.2l-1.8-2.4c-0.4-0.6-1.2-0.6-1.8-0.2c-0.6,0.4-0.6,1.2-0.2,1.8l0.5,0.6
	c-0.7,0-1.4,0.1-2.2,0.1l-1.2-2.8l5.1-2.5l6.9,5.1c0.8,1.5,5.6,10.2,9.5,16.8c3.5,5.8,6.4,14.8,5.1,19c-0.3,0.9-0.7,1.5-1.3,1.8
	c-16.4,6.1-25.3,4.3-29.3,2.5c0.3-0.3,0.6-0.5,1-0.7c0.6-0.4,0.7-1.2,0.3-1.7s-1.2-0.7-1.7-0.3c-0.6,0.4-1.1,0.8-1.6,1.3
	c-0.6,0.5-0.9,0.7-1,0.8c-3.5,2.2-7,2.5-10.8,0.9"/>
<g>
	<g>
		<g>
			<path class="st0" d="M43,31.6h-0.9c-1.5-5.3-5.1-9.7-10-12.2c-1.1-0.6-1.8-1.7-1.8-3c0-0.6,0.2-1.3,0.6-1.9
				c1.1-1.8,1.5-3.9,1.1-6c-0.7-3.8-3.8-6.7-7.6-7.2c-2.5-0.3-5,0.5-6.9,2.2c-1.9,1.7-2.9,4.1-2.9,6.6c0,1.6,0.4,3.1,1.3,4.5
				c0.4,0.6,0.5,1.2,0.5,1.8c0,1.3-0.7,2.5-1.8,3c-4.9,2.5-8.6,7-10,12.2H3.8c-1.9,0-3.4,1.5-3.4,3.4v7.2c0,1.3,0.7,2.4,1.8,3v61.2
				c0,4.8,3.9,8.8,8.8,8.8h25c4.8,0,8.8-3.9,8.8-8.8V45.2c1.1-0.6,1.8-1.7,1.8-3V35C46.5,33.1,44.9,31.6,43,31.6z M16.1,22.4
				c2.2-1.1,3.6-3.4,3.6-6c0-1.2-0.4-2.5-1-3.6c-0.5-0.8-0.8-1.8-0.8-2.7c0-1.5,0.7-3,1.8-4.1s2.7-1.5,4.3-1.3
				c2.3,0.3,4.3,2.1,4.7,4.4c0.2,1.3,0,2.6-0.7,3.7c-0.7,1.1-1,2.4-1,3.6c0,2.5,1.4,4.9,3.6,6c3.8,1.9,6.6,5.2,8,9.2H8.1
				C9.5,27.6,12.4,24.3,16.1,22.4z M43.1,42.2c0,0.1-0.1,0.1-0.1,0.1h-3.6c-0.9,0-1.7,0.8-1.7,1.7s0.8,1.7,1.7,1.7h1.9v60.8
				c0,3-2.5,5.5-5.5,5.5h-25c-3,0-5.5-2.5-5.5-5.5V45.6h26.9c0.9,0,1.7-0.8,1.7-1.7s-0.8-1.7-1.7-1.7H3.8c-0.1,0-0.1-0.1-0.1-0.1V35
				c0-0.1,0.1-0.1,0.1-0.1h39.3c0.1,0,0.1,0.1,0.1,0.1L43.1,42.2L43.1,42.2z"/>
		</g>
	</g>
	<g>
		<g>
			<path class="st0" d="M21.6,54.8h-7.2c-0.9,0-1.7,0.8-1.7,1.7c0,0.9,0.8,1.7,1.7,1.7h7.2c0.9,0,1.7-0.8,1.7-1.7
				C23.3,55.5,22.5,54.8,21.6,54.8z"/>
		</g>
	</g>
	<g>
		<g>
			<path class="st0" d="M21.6,69.1h-7.2c-0.9,0-1.7,0.8-1.7,1.7c0,0.9,0.8,1.7,1.7,1.7h7.2c0.9,0,1.7-0.8,1.7-1.7
				C23.3,69.8,22.5,69.1,21.6,69.1z"/>
		</g>
	</g>
	<g>
		<g>
			<path class="st0" d="M21.6,61.9H18c-0.9,0-1.7,0.8-1.7,1.7c0,0.9,0.8,1.7,1.7,1.7h3.6c0.9,0,1.7-0.8,1.7-1.7
				C23.3,62.7,22.5,61.9,21.6,61.9z"/>
		</g>
	</g>
	<g>
		<g>
			<path class="st0" d="M21.6,76.2H18c-0.9,0-1.7,0.8-1.7,1.7s0.8,1.7,1.7,1.7h3.6c0.9,0,1.7-0.8,1.7-1.7S22.5,76.2,21.6,76.2z"/>
		</g>
	</g>
	<g>
		<g>
			<path class="st0" d="M21.6,90.5H18c-0.9,0-1.7,0.8-1.7,1.7c0,0.9,0.8,1.7,1.7,1.7h3.6c0.9,0,1.7-0.8,1.7-1.7
				C23.3,91.2,22.5,90.5,21.6,90.5z"/>
		</g>
	</g>
	<g>
		<g>
			<path class="st0" d="M21.6,83.3h-7.2c-0.9,0-1.7,0.8-1.7,1.7c0,0.9,0.8,1.7,1.7,1.7h7.2c0.9,0,1.7-0.8,1.7-1.7
				C23.3,84.1,22.5,83.3,21.6,83.3z"/>
		</g>
	</g>
	<g>
		<g>
			<path class="st0" d="M21.6,97.6h-7.2c-0.9,0-1.7,0.8-1.7,1.7s0.8,1.7,1.7,1.7h7.2c0.9,0,1.7-0.8,1.7-1.7S22.5,97.6,21.6,97.6z"/>
		</g>
	</g>
</g>
</svg>
