<?xml version="1.0" encoding="utf-8"?>
<!-- Generator: Adobe Illustrator 22.0.1, SVG Export Plug-In . SVG Version: 6.00 Build 0)  -->
<svg version="1.1" id="Layer_1" xmlns="http://www.w3.org/2000/svg" xmlns:xlink="http://www.w3.org/1999/xlink" x="0px" y="0px"
	 viewBox="0 0 31 31" style="enable-background:new 0 0 31 31;" xml:space="preserve">
<style type="text/css">
	.st0{fill:#FFFFFF;}
</style>
<g>
	<g>
		<path class="st0" d="M27.9,6H4.1C2.4,6,1,7.4,1,9.1v13.7C1,24.6,2.4,26,4.1,26h23.7c1.7,0,3.1-1.4,3.1-3.1V9.1
			C31,7.4,29.6,6,27.9,6z M29.8,22.9c0,1-0.8,1.9-1.9,1.9H4.1c-1,0-1.9-0.8-1.9-1.9V9.1c0-1,0.8-1.9,1.9-1.9h23.7
			c1,0,1.9,0.8,1.9,1.9L29.8,22.9L29.8,22.9z"/>
	</g>
</g>
<g>
	<g>
		<path class="st0" d="M30.4,9.8H1.6C1.3,9.8,1,10,1,10.4v3.7c0,0.3,0.3,0.6,0.6,0.6h28.7c0.3,0,0.6-0.3,0.6-0.6v-3.7
			C31,10,30.7,9.8,30.4,9.8z M29.8,13.5H2.3V11h27.5L29.8,13.5L29.8,13.5z"/>
	</g>
</g>
<g>
	<g>
		<path class="st0" d="M10.4,18.5h-5c-0.3,0-0.6,0.3-0.6,0.6c0,0.3,0.3,0.6,0.6,0.6h5c0.3,0,0.6-0.3,0.6-0.6
			C11,18.8,10.7,18.5,10.4,18.5z"/>
	</g>
</g>
<g>
	<g>
		<path class="st0" d="M14.1,21H5.4c-0.3,0-0.6,0.3-0.6,0.6s0.3,0.6,0.6,0.6h8.7c0.3,0,0.6-0.3,0.6-0.6S14.5,21,14.1,21z"/>
	</g>
</g>
</svg>
