<?xml version="1.0" encoding="utf-8"?>
<!-- Generator: Adobe Illustrator 22.0.1, SVG Export Plug-In . SVG Version: 6.00 Build 0)  -->
<svg version="1.1" id="Layer_1" xmlns="http://www.w3.org/2000/svg" xmlns:xlink="http://www.w3.org/1999/xlink" x="0px" y="0px"
	 viewBox="0 0 22 22" style="enable-background:new 0 0 22 22;" xml:space="preserve">
<g>
	<path d="M10,11.2l-8.9,8.9c-0.2,0.2-0.2,0.6,0,0.9c0.1,0.1,0.3,0.2,0.4,0.2c0.2,0,0.3-0.1,0.4-0.2l9-9l9,9c0.1,0.1,0.3,0.2,0.4,0.2
		s0.3-0.1,0.4-0.2c0.2-0.2,0.2-0.6,0-0.9L12,11.2l8.9-8.9c0.2-0.2,0.2-0.6,0-0.9c-0.2-0.2-0.6-0.2-0.9,0l-9,9l-9-9
		c-0.2-0.2-0.6-0.2-0.9,0C0.9,1.6,0.9,2,1.1,2.3L10,11.2z"/>
</g>
</svg>
