<?xml version="1.0" encoding="utf-8"?>
<!-- Generator: Adobe Illustrator 22.0.1, SVG Export Plug-In . SVG Version: 6.00 Build 0)  -->
<svg version="1.1" id="Layer_1" xmlns="http://www.w3.org/2000/svg" xmlns:xlink="http://www.w3.org/1999/xlink" x="0px" y="0px"
	 viewBox="0 0 110 104" style="enable-background:new 0 0 110 104;" xml:space="preserve">
<style type="text/css">
	.st0{fill:#FFFFFF;}
</style>
<g>
	<g>
		<path class="st0" d="M102,42.1v-4.4c2.3-1.2,4-3.7,3.9-6.4c-0.1-3.8-3.3-6.8-7-6.8h-1.4c-0.9,0-1.6,0.8-1.6,1.6
			c0,0.9,0.8,1.6,1.6,1.6H99c2.1,0,3.9,1.7,3.8,3.8c0,2.1-1.7,3.7-3.8,3.7H82c-2.1,0-3.9-1.7-3.8-3.8c0-2.1,1.7-3.7,3.8-3.7h8
			c0.9,0,1.6-0.8,1.6-1.6c0-0.9-0.8-1.6-1.6-1.6h-6.8v-9.8c2.6-1.2,4.3-3.8,4.3-6.8c0-4-3.5-7.3-7.6-7.3H61.8c-4,0-7.4,3.3-7.6,7.3
			c0,3,1.7,5.6,4.3,6.8v13.6c-4.3,1.4-8.5,3.8-12,6.7v-6.5c2.3-1.2,4-3.7,3.9-6.4c-0.1-3.8-3.3-6.8-7-6.8H26.5c-3.8,0-7,3-7,6.8
			c0,2.9,1.6,5.4,3.9,6.4v24.4L12.5,71.6c-0.4,0.8-0.1,1.8,0.7,2.2c0.8,0.4,1.8,0.1,2.2-0.7l4.4-7.7h30.3l15,26.1c1,1.8,1,4,0,5.9
			s-3,2.9-5.1,2.9H9.8c-2.1,0-4-1-5.1-2.9c-1-1.8-1-4,0-5.9l6.3-11c0.4-0.8,0.1-1.8-0.7-2.2C9.5,78,8.5,78.2,8.1,79L1.8,90
			c-1.6,2.9-1.6,6.1,0,9c1.6,2.9,4.7,4.6,8,4.6h50.3c1.2,0,2.3-0.3,3.5-0.7c2.3,0.4,4.8,0.7,7.2,0.7c4.4,0,8.7-0.8,12.9-2.2
			c2,1.4,4.4,2.2,7,2.2c6.3-0.1,11.4-5.4,11.4-11.7v-4.2c4.8-6.7,7.4-14.5,7.4-22.7C109.4,56.6,106.8,48.7,102,42.1z M57.3,7.9
			c0-2.3,1.8-4.2,4.2-4.2H80c2.3,0,4.2,1.8,4.2,4.2S82.4,12,80,12H61.5C59.1,12,57.3,10.2,57.3,7.9z M60.5,31
			c0.7-0.3,1.2-0.8,1.2-1.6V15.3h18.3v9.4c-2.9,0.9-5,3.5-5,6.7c0,2.7,1.6,5.2,3.9,6.3v3.7H46.4v-2.2C50.4,35.4,55.2,32.5,60.5,31z
			 M22.5,22.1c0-2.1,1.7-3.8,3.8-3.8h17.1c2.1,0,3.8,1.7,3.8,3.8s-1.7,3.8-3.8,3.8H26.2C24.2,25.7,22.5,24,22.5,22.1z M21.5,62.2
			l4.7-8.2c0.1-0.3,0.3-0.5,0.3-0.8V29h16.6v24.2c0,0.3,0.1,0.5,0.3,0.8l4.7,8.2H21.5z M70.8,100.2c-1.2,0-2.5,0-3.7-0.1
			c0.3-0.4,0.5-0.7,0.8-1c1.6-2.9,1.6-6.1,0-9L46.5,52.8v-8.1H79v47.3c0,2.5,0.8,4.8,2.2,6.8C77.8,99.6,74.3,100.2,70.8,100.2z
			 M98.7,91.9c0,4.6-3.8,8.4-8.4,8.4S82,96.5,82,91.9V54.2h16.6v37.7H98.7z M98.7,50.8H82.1V38.3h16.6V50.8z M102,48.2
			c2.7,5.1,4.2,10.7,4.2,16.7c0,5.9-1.4,11.6-4.2,16.7V48.2z"/>
	</g>
</g>
<g>
	<g>
		<path class="st0" d="M33.7,77.8c-0.7-0.3-1.4-0.3-1.8,0.3c-0.5,0.5-0.7,1.4-0.3,2.1c0.8,1.2,2.7,0.8,3-0.7
			C34.6,78.7,34.2,78.1,33.7,77.8z"/>
	</g>
</g>
<g>
	<g>
		<path class="st0" d="M88.3,68.3c-0.3-0.7-0.9-1-1.6-1s-1.3,0.5-1.4,1c-0.4,1.4,1,2.6,2.3,2C88.3,69.9,88.7,69,88.3,68.3z"/>
	</g>
</g>
<g>
	<g>
		<path class="st0" d="M93.9,85.5c-0.3-0.7-0.9-1-1.6-1s-1.3,0.4-1.4,1c-0.3,0.7,0,1.4,0.5,1.8c0.5,0.4,1.3,0.4,1.8,0.1
			C93.9,87.1,94.1,86.2,93.9,85.5z"/>
	</g>
</g>
<g>
	<g>
		<path class="st0" d="M93.6,61.5c-0.1-0.7-0.8-1-1.4-1.2c-0.7-0.1-1.3,0.3-1.7,0.9c-0.3,0.7,0,1.6,0.5,2s1.3,0.4,2-0.1
			C93.5,62.8,93.7,62.2,93.6,61.5z"/>
	</g>
</g>
<g>
	<g>
		<path class="st0" d="M45.7,73.3C45,73,44.3,73,43.9,73.5c-0.5,0.5-0.7,1.4-0.3,2.1c0.8,1.2,2.7,0.8,3-0.7
			C46.6,74.3,46.4,73.5,45.7,73.3z"/>
	</g>
</g>
<g>
	<g>
		<path class="st0" d="M44.3,84.1c-0.3-0.8-1-1.2-1.8-1c-1.4,0.3-1.8,2.2-0.5,3c0.7,0.4,1.4,0.3,2-0.1
			C44.4,85.4,44.5,84.8,44.3,84.1z"/>
	</g>
</g>
</svg>
