<?xml version="1.0" encoding="utf-8"?>
<!-- Generator: Adobe Illustrator 22.0.1, SVG Export Plug-In . SVG Version: 6.00 Build 0)  -->
<svg version="1.1" id="Layer_1" xmlns="http://www.w3.org/2000/svg" xmlns:xlink="http://www.w3.org/1999/xlink" x="0px" y="0px"
	 viewBox="0 0 40 52" style="enable-background:new 0 0 40 52;" xml:space="preserve">
<style type="text/css">
	.st0{fill:none;stroke:#FF0B0B;stroke-miterlimit:10;}
	.st1{fill:#E53030;}
	.st2{fill:#FFFFFF;}
	.st3{fill:#F8F8F8;}
</style>
<polygon class="st0" points="0.5,1 31.4,1 39.5,9.1 39.5,51 0.5,51 "/>
<polygon class="st1" points="0.5,1 31.4,1 39.5,9.1 39.5,13 0.5,13 "/>
<polygon class="st2" points="31.4,1 31.4,9.1 39.5,9.1 "/>
<path class="st3" d="M3.3,10.6V3.6h2.3c0.9,0,1.4,0,1.7,0.1C7.7,3.8,8,4,8.3,4.4c0.3,0.3,0.4,0.8,0.4,1.4c0,0.4-0.1,0.8-0.2,1.1
	S8.1,7.4,7.9,7.5C7.6,7.7,7.4,7.8,7.1,7.9C6.8,7.9,6.3,8,5.6,8H4.7v2.7H3.3z M4.7,4.8v2h0.8c0.6,0,0.9,0,1.1-0.1
	C6.8,6.6,7,6.5,7.1,6.3S7.2,6,7.2,5.8c0-0.3-0.1-0.5-0.2-0.6C6.9,4.9,6.7,4.9,6.4,4.8c-0.2,0-0.5,0-1,0C5.4,4.8,4.7,4.8,4.7,4.8z
	 M9.9,3.6h2.6c0.6,0,1,0,1.3,0.1c0.4,0.1,0.8,0.3,1.1,0.6c0.3,0.3,0.5,0.7,0.7,1.2c0.2,0.5,0.2,1,0.2,1.7c0,0.6-0.1,1.1-0.2,1.5
	c-0.2,0.5-0.4,0.9-0.8,1.2c-0.3,0.2-0.6,0.4-1,0.6c-0.3,0.1-0.7,0.2-1.3,0.2H9.9V3.6z M11.3,4.8v4.7h1.1c0.4,0,0.7,0,0.9-0.1
	c0.2-0.1,0.4-0.2,0.6-0.3c0.2-0.1,0.3-0.4,0.4-0.7c0.1-0.3,0.1-0.7,0.1-1.3s0-1-0.1-1.3c-0.1-0.3-0.2-0.5-0.4-0.7
	c-0.2-0.2-0.4-0.3-0.7-0.3c-0.2,0-0.6-0.1-1.2-0.1C12,4.8,11.3,4.8,11.3,4.8z M17,10.6V3.6h4.8v1.2h-3.4v1.7h3v1.2h-3v3H17z"/>
<path class="st1" d="M32.5,37c0.9,0,2.2,0,2.9,0.6l0.6,0.6c0.3-0.4,0.4-1.1-0.1-1.6c-1.6-1.6-7.6-0.7-9.7-0.5
	c-0.2,0-0.5-0.2-0.7-0.4c-0.8-0.5-2.1-1.6-2.7-2.3l-1.2-1.5c-0.9-1.3-1.7-2.8-2.3-4.3c-0.2-0.5-0.1-0.4,0-0.9
	c0.1-0.3,0.1-0.6,0.2-0.9c0.2-1.3,0.4-2.7,0.3-4c-0.3,0-0.2,0.1-0.3,0.3l-0.8,2.7c0,0.1,0,0.1-0.1,0.2c0,0,0,0.1,0,0.1l-0.1,0.1
	c-0.1-0.3-0.3-1.1-0.4-1.5c-0.3-1.5-0.6-3.5-0.5-5.1c0.1-1.1,0.4-2.7,1.3-1.3c0.2,0.4,0.4,0.8,0.6,1.2l0.5,1.4
	c0.1-0.6,0.2-1.1,0-1.7c-0.2-0.8-0.4-0.9-0.6-1.2c-0.1-0.1-0.2-0.2-0.3-0.3c-0.1-0.1-0.2-0.1-0.3-0.2c-0.7-0.2-0.8-0.3-1.6-0.1
	c-0.1,0-0.2,0.1-0.3,0.1l-0.2,0.1c0,0,0,0-0.1,0c0,0.1-0.1,0.1-0.3,0.4c-0.3,0.5-0.3,1.2-0.4,1.8c-0.1,2.6,0.6,6.1,1.4,8.6
	c0.1,0.2,0,0.3-0.1,0.6c-0.3,0.8-0.7,1.7-1.1,2.5c-0.8,1.9-2.8,5.8-3.8,7.6c-0.7,1.2-1.3,2.5-2,3.7c-0.4,0.6-0.8,1.2-1.2,1.7
	c-0.3,0.4-1.6,2-2,2.3c-0.3,0.2-0.5,0.5-0.7,0.7c-0.1,0.1-0.2,0.2-0.4,0.4c-0.1,0.1-0.2,0.2-0.4,0.3c-0.2,0.1-0.6,0.6-0.9,0.4
	c-0.5-0.5,1.9-3.6,2.5-4.2l2-2.1c-0.8,0.3-1.9,0.9-2.5,1.4c-1,0.7-3.2,3-3.3,4.3c-0.1,1.4,2,2.1,3.7,1c0.2-0.1,0.4-0.3,0.5-0.4
	c0.9-0.9,1.3-1.6,2.1-2.7c0.9-1.4,1.7-2.7,2.6-4.1c0.1-0.2,0.3-0.3,0.6-0.4c3.4-1.7,8.2-2.7,12.1-3.2c0.3,0,0.4,0.1,0.7,0.2
	c0.2,0.1,0.4,0.2,0.6,0.3c1.2,0.6,2.7,1.3,4,1.7c1.8,0.5,5.2,1.2,5.4-1.2l-0.2,0.2c-0.9,0.7-3.1,0.1-4-0.1c-0.7-0.2-3.1-1-3.7-1.3
	C29.5,37,31.1,37,32.5,37z M21.2,37c-2.1,0.5-4.6,1.1-6.5,2c-0.3,0.2-0.8,0.4-1.1,0.5c0.1-0.2,0.2-0.4,0.3-0.6
	c0.7-1.1,3-5.5,3.4-6.5c0.2-0.4,0.4-0.8,0.6-1.3c0.2-0.4,0.3-0.9,0.5-1.3c0.2,0.2,0.4,0.8,0.5,1c0.6,1.1,1.1,1.8,1.9,2.7
	c0.2,0.3,0.5,0.6,0.7,0.8l1.6,1.4c0.3,0.2,0.6,0.4,0.9,0.6L21.2,37z"/>
</svg>
