<?xml version="1.0" encoding="utf-8"?>
<!-- Generator: Adobe Illustrator 22.0.1, SVG Export Plug-In . SVG Version: 6.00 Build 0)  -->
<svg version="1.1" id="Layer_1" xmlns="http://www.w3.org/2000/svg" xmlns:xlink="http://www.w3.org/1999/xlink" x="0px" y="0px"
	 viewBox="0 0 31 31" style="enable-background:new 0 0 31 31;" xml:space="preserve">
<style type="text/css">
	.st0{fill:#FFFFFF;}
</style>
<g>
	<g>
		<path class="st0" d="M25.1,31c-1.2,0-2.8-0.3-4.4-0.9c-3.6-1.4-7.6-4.1-11.1-7.6C6,18.9,3.3,14.9,1.9,11.3c-1.2-3.3-1.3-6,0-7.3
			c0.2-0.2,0.4-0.4,0.5-0.6C3.6,2.3,4.9,0.9,6.6,1c1.2,0,2.3,0.8,3.5,2.2c3.4,4.3,1.9,5.8,0.1,7.5l-0.3,0.3
			c-0.3,0.3-0.8,1.6,4.3,6.8c1.7,1.7,3.1,2.9,4.3,3.7c0.7,0.5,2,1.2,2.5,0.6l0.3-0.3c1.8-1.8,3.3-3.3,7.5,0.1
			c1.4,1.2,2.2,2.3,2.2,3.5c0.1,1.7-1.3,3-2.5,4.1c-0.2,0.2-0.4,0.4-0.6,0.5C27.3,30.7,26.4,31,25.1,31z M6.5,2
			C5.3,2,4.2,3.2,3.2,4.2C3,4.4,2.8,4.6,2.6,4.8C1.7,5.7,1.8,8.1,2.9,11c1.3,3.5,3.9,7.3,7.4,10.8s7.3,6.1,10.8,7.4
			c2.8,1.1,5.3,1.2,6.2,0.2c0.2-0.2,0.4-0.4,0.6-0.6c1-1,2.2-2.1,2.2-3.3c0-0.9-0.7-1.8-1.8-2.7c-3.6-2.9-4.5-1.8-6.2-0.2l-0.3,0.3
			c-0.8,0.8-2.1,0.6-3.8-0.5c-1.2-0.8-2.7-2.1-4.4-3.8l0,0c-4.3-4.3-5.6-6.9-4.3-8.2l0.3-0.3c1.7-1.6,2.7-2.6-0.2-6.2
			C8.3,2.7,7.4,2.1,6.5,2C6.5,2,6.5,2,6.5,2z"/>
	</g>
	<g>
		<path class="st0" d="M25.3,13.4c-0.1,0-0.1,0-0.2,0c-0.3-0.1-0.4-0.4-0.3-0.7c0.6-1.6,0.3-3.4-0.9-4.6c-1.2-1.2-3.1-1.6-4.7-0.9
			c-0.3,0.1-0.6,0-0.7-0.3c-0.1-0.3,0-0.6,0.3-0.7c2-0.9,4.3-0.5,5.9,1.1c1.5,1.5,1.9,3.7,1.2,5.7C25.7,13.3,25.5,13.4,25.3,13.4z"
			/>
		<path class="st0" d="M29.8,15.2c-0.1,0-0.1,0-0.2,0c-0.3-0.1-0.4-0.4-0.3-0.7c1.4-3.4,0.6-7.3-2-9.9C24.7,2,20.6,1.3,17.1,2.8
			c-0.3,0.1-0.6,0-0.7-0.3c-0.1-0.3,0-0.6,0.3-0.7C20.5,0.2,25.1,1,28,4c2.9,2.9,3.8,7.2,2.2,11C30.2,15.1,30,15.2,29.8,15.2z"/>
	</g>
</g>
</svg>
