<?xml version="1.0" encoding="utf-8"?>
<!-- Generator: Adobe Illustrator 22.0.1, SVG Export Plug-In . SVG Version: 6.00 Build 0)  -->
<svg version="1.1" id="Layer_1" xmlns="http://www.w3.org/2000/svg" xmlns:xlink="http://www.w3.org/1999/xlink" x="0px" y="0px"
	 viewBox="0 0 34 41" style="enable-background:new 0 0 34 41;" xml:space="preserve">
<style type="text/css">
	.st0{fill:#AAC148;}
</style>
<g>
	<path class="st0" d="M27.1,13.8H6.9c-0.5,0-0.8,0.4-0.8,0.8v17c0,0.5,0.4,0.8,0.8,0.8h3.6v5.7c0,1.3,1.1,2.4,2.4,2.4l0,0
		c1.3,0,2.4-1.1,2.4-2.4v-5.7h3.4v5.7c0,1.3,1.1,2.4,2.4,2.4l0,0c1.3,0,2.4-1.1,2.4-2.4v-5.7h3.7c0.5,0,0.8-0.4,0.8-0.8v-17
		C28,14.1,27.6,13.8,27.1,13.8z"/>
	<path class="st0" d="M2.6,13.8L2.6,13.8c-1.3,0-2.4,1.1-2.4,2.4V26c0,1.3,1.1,2.4,2.4,2.4l0,0C3.9,28.4,5,27.3,5,26v-9.8
		C5,14.8,3.9,13.8,2.6,13.8z"/>
	<path class="st0" d="M31.4,13.8L31.4,13.8c-1.3,0-2.4,1.1-2.4,2.4V26c0,1.3,1.1,2.4,2.4,2.4l0,0c1.3,0,2.4-1.1,2.4-2.4v-9.8
		C33.8,14.8,32.7,13.8,31.4,13.8z"/>
	<path class="st0" d="M7,12.6h19.9c0.5,0,0.9-0.5,0.8-1c-0.7-3.1-2.7-5.8-5.4-7.3l1.7-3.1c0.1-0.2,0-0.5-0.2-0.6
		c-0.2-0.1-0.5,0-0.6,0.2l-1.7,3.1c-1.4-0.7-3-1-4.6-1c-1.7,0-3.2,0.4-4.6,1l-1.7-3.1c-0.1-0.2-0.4-0.3-0.6-0.2
		C9.8,0.7,9.8,1,9.9,1.2l1.7,3.1c-2.7,1.5-4.7,4.2-5.4,7.3C6.1,12.1,6.5,12.6,7,12.6z M22.9,8c0,0.5-0.4,0.9-0.9,0.9
		c-0.5,0-0.9-0.4-0.9-0.9c0-0.5,0.4-0.9,0.9-0.9S22.9,7.5,22.9,8z M12,7.1c0.5,0,0.9,0.4,0.9,0.9c0,0.5-0.4,0.9-0.9,0.9
		C11.4,8.9,11,8.5,11,8C11,7.5,11.4,7.1,12,7.1z"/>
</g>
</svg>
