<?xml version="1.0" encoding="utf-8"?>
<!-- Generator: Adobe Illustrator 22.0.1, SVG Export Plug-In . SVG Version: 6.00 Build 0)  -->
<svg version="1.1" id="Layer_1" xmlns="http://www.w3.org/2000/svg" xmlns:xlink="http://www.w3.org/1999/xlink" x="0px" y="0px"
	 viewBox="0 0 31 41" style="enable-background:new 0 0 31 41;" xml:space="preserve">
<style type="text/css">
	.st0{fill:#FFFFFF;}
</style>
<g>
	<path class="st0" d="M8.7,14.5c0.1,0.1,0.3,0.1,0.4,0.1c0.1,0,0.3,0,0.4-0.1c2-1.1,4.2-1.7,6.4-1.7s4.5,0.6,6.4,1.7
		c0.3,0.2,0.6,0.1,0.9,0c0.3-0.2,0.4-0.4,0.4-0.8v-3.6c0-3-2.5-5.5-5.5-5.5h-4.5c-3,0-5.5,2.5-5.5,5.5v3.6C8.3,14,8.4,14.3,8.7,14.5
		z M10,10.2c0-2.1,1.7-3.7,3.7-3.7h4.5c2.1,0,3.7,1.7,3.7,3.7v2.2c-1.9-0.8-3.9-1.3-6-1.3c-2.1,0-4.1,0.4-6,1.3V10.2z"/>
	<path class="st0" d="M27.4,16.4v-6.2c0-5-4.1-9.2-9.2-9.2h-4.5c-5,0-9.2,4.1-9.2,9.2v6.2C2.3,19.1,1,22.5,1,26c0,8.2,6.7,15,15,15
		s15-6.7,15-15C31,22.5,29.7,19.1,27.4,16.4z M16,39.3C8.7,39.3,2.8,33.3,2.8,26c0-3.2,1.2-6.3,3.3-8.8c0.1-0.2,0.2-0.4,0.2-0.6
		v-6.5c0-4.1,3.3-7.4,7.4-7.4h4.5c4.1,0,7.4,3.3,7.4,7.4v6.5c0,0.2,0.1,0.4,0.2,0.6c2.1,2.4,3.3,5.5,3.3,8.8
		C29.2,33.3,23.3,39.3,16,39.3z"/>
	<path class="st0" d="M19,14.4c-1-0.3-2-0.4-3-0.4c-0.5,0-0.9,0.4-0.9,0.9s0.4,0.9,0.9,0.9c0.9,0,1.8,0.1,2.6,0.3c0.1,0,0.1,0,0.2,0
		c0.4,0,0.7-0.3,0.8-0.7C19.8,15,19.5,14.5,19,14.4z"/>
	<path class="st0" d="M22.4,15.8c-0.4-0.3-0.9-0.1-1.2,0.3c-0.3,0.4-0.1,0.9,0.3,1.2c3.1,1.9,4.9,5.2,4.9,8.8c0,0.5,0.4,0.9,0.9,0.9
		c0.5,0,0.9-0.4,0.9-0.9C28.1,21.8,25.9,18,22.4,15.8z"/>
	<path class="st0" d="M16,36.4c-1.2,0-2.3-0.2-3.5-0.6c-0.5-0.2-1,0.1-1.1,0.5c-0.2,0.5,0.1,1,0.5,1.1c1.3,0.5,2.7,0.7,4,0.7
		c0.5,0,0.9-0.4,0.9-0.9C16.9,36.8,16.5,36.4,16,36.4z"/>
	<path class="st0" d="M10.2,34.6c-2.9-1.9-4.6-5.1-4.6-8.6c0-0.5-0.4-0.9-0.9-0.9s-0.9,0.4-0.9,0.9c0,4,2,7.8,5.3,10
		c0.1,0.1,0.3,0.1,0.5,0.1c0.3,0,0.6-0.1,0.7-0.4C10.7,35.4,10.6,34.9,10.2,34.6z"/>
</g>
</svg>
